Coordinates
version=1
nRows=13
nColumns=34
inDegrees=yes

Units are S.I. units (second, meters, Newtons, ...)
If the header above contains a line with 'inDegrees', this indicates whether rotational values are in degrees (yes) or radians (no).

endheader
time	pelvis_tilt	pelvis_list	pelvis_rotation	pelvis_tx	pelvis_ty	pelvis_tz	hip_flexion_r	hip_adduction_r	hip_rotation_r	knee_angle_r	ankle_angle_r	subtalar_angle_r	mtp_angle_r	hip_flexion_l	hip_adduction_l	hip_rotation_l	knee_angle_l	ankle_angle_l	subtalar_angle_l	mtp_angle_l	lumbar_extension	lumbar_bending	lumbar_rotation	arm_flex_r	arm_add_r	arm_rot_r	elbow_flex_r	pro_sup_r	arm_flex_l	arm_add_l	arm_rot_l	elbow_flex_l	pro_sup_l
      7.81666670	    -12.52701128	     -5.51101794	     24.84072275	      0.43581960	      0.85721664	     -0.07664891	     44.83875379	      3.00357010	      2.12641849	     49.47757143	      9.98679756	    -35.00000000	      0.00000000	     48.90779226	      1.86555375	      7.93722346	     55.56314361	      5.33650553	    -29.98406317	      0.00000000	     -7.72416018	     -1.92884585	      0.55622599	     81.80143691	     -1.64984105	     18.07054033	     47.75856051	     90.06954919	    100.93460090	      9.54158299	     99.50093819	      3.42317008	     17.07011162
      7.83333330	    -12.99010416	     -5.93744984	     24.54360300	      0.44660962	      0.85672106	     -0.08395000	     42.39829438	      2.69994727	      1.06065081	     44.73325962	      8.06978893	    -35.00000000	      0.00000000	     46.91484974	      1.36659402	      7.94489866	     51.90380379	      4.76990145	    -29.49066648	      0.00000000	     -5.39006806	     -1.28801153	      0.74316185	     81.92063459	     -0.91052209	     19.35592514	     44.62923885	     90.48135048	     99.76323514	      8.86901671	     98.75641029	      4.47031635	     17.92886798
      7.85000000	    -13.84776992	     -6.18128753	     24.55694317	      0.44935723	      0.87017460	     -0.08540089	     40.43706163	      2.17111489	      0.11751357	     40.14655972	      6.46433105	    -35.00000000	      0.00000000	     44.95582654	      1.16495115	      7.52152712	     47.24691467	      4.10433800	    -28.59850711	      0.00000000	     -3.04498935	     -1.38703153	      0.56960915	     80.83581508	     -0.92918189	     19.76150391	     44.29457494	     90.54105566	     98.70805144	      8.57969449	     98.75268974	      4.81862856	     18.09996113
      7.86666670	    -14.25946191	     -6.48348596	     24.52882716	      0.45746608	      0.89100569	     -0.08806686	     37.66284647	      1.93276724	     -1.04562850	     34.34849887	      2.79870075	    -35.00000000	      0.00000000	     42.11275127	      0.66106948	      7.21462667	     41.58301487	      2.51469060	    -27.32418150	      0.00000000	     -0.94074293	     -1.04383604	      0.29863285	     79.20340187	     -0.75372557	     20.67925141	     44.38918778	     90.66103675	     97.14925386	      7.41997421	     98.65184848	      6.25559089	     19.25009569
      7.88333330	    -14.53720012	     -6.64390482	     24.83684204	      0.45825583	      0.89121513	     -0.09074122	     35.52263267	      1.64404675	     -2.22184720	     30.19598785	      1.06339081	    -34.92125845	      0.00000000	     39.75488803	      0.42804050	      6.74152094	     36.77541141	      1.39423404	    -26.17183407	      0.00000000	      0.51437059	     -0.65329261	     -0.42910657	     79.20504001	     -0.05816573	     22.00056348	     42.93869432	     90.76333877	     96.59688578	      6.16688961	     98.38109092	      7.64783138	     21.15065789
      7.90000000	    -15.06645895	     -6.60287080	     24.35668591	      0.46083717	      0.90708776	     -0.09139357	     33.52055618	      1.41375828	     -3.27459973	     25.55337113	     -0.73247967	    -33.14642276	      0.00000000	     37.65580739	      0.07114900	      5.66295281	     32.05386971	     -0.66406631	    -24.66779545	      0.00000000	      2.52684537	     -0.80877659	     -0.21178057	     77.84016731	     -0.02674033	     22.42812339	     42.66412414	     90.78276274	     94.95472998	      5.73263532	     98.41444764	      7.78848066	     21.38737345
      7.91666670	    -14.69213136	     -6.28473445	     24.61708927	      0.46963780	      0.91562709	     -0.09589128	     30.43653936	      1.06519447	     -4.73976990	     21.71966723	     -0.17299497	    -29.45253067	      0.00000000	     34.55480876	     -0.02499321	      4.74255019	     27.96982365	     -1.06962941	    -22.22423205	      0.00000000	      3.51862903	     -0.83806941	     -0.43995733	     76.87425608	     -0.03829300	     23.62160876	     42.17456601	     90.54571643	     93.59129725	      4.99736506	     98.21403117	      8.62279108	     23.38439514
      7.93333330	    -14.66766411	     -5.82771814	     24.31063397	      0.47239887	      0.91868685	     -0.09664849	     28.17160852	      0.78153233	     -5.87473725	     18.28024518	     -0.88331537	    -27.38718372	      0.00000000	     32.08976885	     -0.05139157	      3.35676468	     24.15429990	     -1.79212173	    -20.36598797	      0.00000000	      4.94972053	     -1.21043358	     -0.08372804	     75.88417030	     -0.04972787	     24.15382138	     41.82887653	     90.34533173	     92.31541400	      4.54769219	     98.17119657	      9.15253309	     24.47961221
      7.95000000	    -14.80686713	     -5.44472782	     24.25305215	      0.47192781	      0.92292013	     -0.09688607	     26.27353063	      0.40778597	     -7.34553565	     14.84711495	     -0.68938274	    -24.14649185	      0.00000000	     30.09771318	      0.08530427	      2.12939311	     20.57588034	     -2.47320035	    -18.32191614	      0.00000000	      6.06448656	     -1.46790931	      0.03813953	     76.20181006	      0.80461241	     24.35354111	     39.98305836	     89.99147415	     91.55063365	      4.05653373	     98.22052277	      9.89853420	     25.87617153
      7.96666670	    -14.70889015	     -5.00968686	     24.28848966	      0.47372662	      0.92832028	     -0.09839724	     24.28147135	      0.13896196	     -8.62346984	     11.65712292	     -1.10818181	    -21.62349480	      0.00000000	     28.09183693	      0.31825401	      0.89195103	     17.36764911	     -3.08618469	    -16.41068260	      0.00000000	      6.81298243	     -1.65293913	      0.71554479	     76.60856938	      0.92980969	     24.25233679	     38.17007831	     89.72818185	     91.02568254	      4.23794320	     98.27478829	     10.49923643	     26.67133915
      7.98333330	    -14.50244518	     -4.56322522	     24.46148006	      0.47563479	      0.92737633	     -0.09811444	     22.28612636	     -0.05154200	    -10.13693042	      8.71823827	     -0.96654473	    -18.72996408	      0.00000000	     26.22420594	      0.55880136	     -0.52900994	     14.36066961	     -3.63245913	    -14.29513407	      0.00000000	      7.24394684	     -1.88744409	      1.01539574	     77.45858832	      1.65659924	     24.25758990	     35.52342266	     89.42073965	     90.98820363	      4.44094471	     98.51017874	     10.86485234	     27.47688349
      8.00000000	    -14.71572713	     -4.42791043	     24.52693336	      0.47731649	      0.92861024	     -0.09922936	     20.98581090	     -0.08058010	    -10.94489901	      6.44040913	     -1.55407723	    -17.75296179	      0.00000000	     24.90077656	      0.81428257	     -1.24422394	     11.57653966	     -4.23410869	    -13.28308122	      0.00000000	      8.83746644	     -2.10024954	      1.76174142	     76.72087888	      1.31198111	     24.32960547	     34.64852064	     89.36094033	     90.05454443	      4.92200233	     98.63825843	     11.31877901	     27.65019268
      8.01666670	    -14.14955137	     -3.90419342	     24.56779204	      0.48108942	      0.92997818	     -0.10134803	     18.85746702	     -0.15380134	    -12.71841097	      4.58629139	     -0.19857413	    -13.85650028	      0.00000000	     22.59342294	      0.94899215	     -3.54465732	      8.75163331	     -3.64611017	     -9.23882364	      0.00000000	      8.98703024	     -2.47391219	      2.91580989	     77.24869466	      0.85283079	     24.60178649	     32.23076254	     88.84691468	     89.93809423	      5.69650931	     98.75295452	     11.93364998	     28.61591204
